{
  "accessors": [
    {
      "bufferView": 2,
      "componentType": 5126,
      "count": 2770,
      "max": [
        5.978199005126953,
        6.100362777709961,
        7.072331428527832
      ],
      "min": [
        -5.978206634521484,
        -0.11655884981155396,
        -4.338730812072754
      ],
      "type": "VEC3"
    },
    {
      "bufferView": 2,
      "byteOffset": 33240,
      "componentType": 5126,
      "count": 2770,
      "max": [
        0.9998787045478821,
        0.9999362826347351,
        0.9998310208320618
      ],
      "min": [
        -0.9998787045478821,
        -0.9999947547912598,
        -0.999150276184082
      ],
      "type": "VEC3"
    },
    {
      "bufferView": 3,
      "componentType": 5126,
      "count": 2770,
      "max": [
        0.9999421834945679,
        0.997492253780365,
        0.9999709129333496,
        1.0
      ],
      "min": [
        -0.9999421238899231,
        -0.9999668002128601,
        -0.9999361634254456,
        -1.0
      ],
      "type": "VEC4"
    },
    {
      "bufferView": 1,
      "componentType": 5126,
      "count": 2770,
      "max": [
        0.9819097518920898,
        0.9782556891441345
      ],
      "min": [
        0.01653146743774414,
        0.005424946546554565
      ],
      "type": "VEC2"
    },
    {
      "bufferView": 0,
      "componentType": 5125,
      "count": 12516,
      "type": "SCALAR"
    }
  ],
  "asset": {
    "extras": {
      "author": "abazibiz (https://sketchfab.com/abazibiz)",
      "license": "CC-BY-4.0 (http://creativecommons.org/licenses/by/4.0/)",
      "source": "https://sketchfab.com/3d-models/sneakers-689c29ec3a8a4f44b32f616bcb97cfaa",
      "title": "sneakers"
    },
    "generator": "Sketchfab-12.68.0",
    "version": "2.0"
  },
  "bufferViews": [
    {
      "buffer": 0,
      "byteLength": 50064,
      "name": "floatBufferViews",
      "target": 34963
    },
    {
      "buffer": 0,
      "byteLength": 22160,
      "byteOffset": 50064,
      "byteStride": 8,
      "name": "floatBufferViews",
      "target": 34962
    },
    {
      "buffer": 0,
      "byteLength": 66480,
      "byteOffset": 72224,
      "byteStride": 12,
      "name": "floatBufferViews",
      "target": 34962
    },
    {
      "buffer": 0,
      "byteLength": 44320,
      "byteOffset": 138704,
      "byteStride": 16,
      "name": "floatBufferViews",
      "target": 34962
    }
  ],
  "buffers": [
    {
      "byteLength": 183024,
      "uri": "scene.bin"
    }
  ],
  "images": [
    {
      "uri": "textures/cons_mat_baseColor.jpeg"
    },
    {
      "uri": "textures/cons_mat_metallicRoughness.png"
    },
    {
      "uri": "textures/cons_mat_normal.png"
    }
  ],
  "materials": [
    {
      "doubleSided": true,
      "name": "cons_mat",
      "normalTexture": {
        "index": 2
      },
      "pbrMetallicRoughness": {
        "baseColorTexture": {
          "index": 0
        },
        "metallicRoughnessTexture": {
          "index": 1
        }
      }
    }
  ],
  "meshes": [
    {
      "name": "shoes_3_cons_mat_0",
      "primitives": [
        {
          "attributes": {
            "NORMAL": 1,
            "POSITION": 0,
            "TANGENT": 2,
            "TEXCOORD_0": 3
          },
          "indices": 4,
          "material": 0,
          "mode": 4
        }
      ]
    }
  ],
  "nodes": [
    {
      "children": [
        1
      ],
      "matrix": [
        1.0,
        0.0,
        0.0,
        0.0,
        0.0,
        2.220446049250313e-16,
        -1.0,
        0.0,
        0.0,
        1.0,
        2.220446049250313e-16,
        0.0,
        0.0,
        0.0,
        0.0,
        1.0
      ],
      "name": "Sketchfab_model"
    },
    {
      "children": [
        2
      ],
      "matrix": [
        0.009999999776482582,
        0.0,
        0.0,
        0.0,
        0.0,
        0.0,
        0.009999999776482582,
        0.0,
        0.0,
        -0.009999999776482582,
        0.0,
        0.0,
        0.0,
        0.0,
        0.0,
        1.0
      ],
      "name": "701c22370704418886bb323097ebc760.fbx"
    },
    {
      "children": [
        3
      ],
      "name": "RootNode"
    },
    {
      "children": [
        4
      ],
      "name": "zombie_3"
    },
    {
      "children": [
        5
      ],
      "name": "shoes_3"
    },
    {
      "mesh": 0,
      "name": "shoes_3_cons_mat_0"
    }
  ],
  "samplers": [
    {
      "magFilter": 9729,
      "minFilter": 9987,
      "wrapS": 10497,
      "wrapT": 10497
    }
  ],
  "scene": 0,
  "scenes": [
    {
      "name": "Sketchfab_Scene",
      "nodes": [
        0
      ]
    }
  ],
  "textures": [
    {
      "sampler": 0,
      "source": 0
    },
    {
      "sampler": 0,
      "source": 1
    },
    {
      "sampler": 0,
      "source": 2
    }
  ]
}
